<svg xmlns="http://www.w3.org/2000/svg" xmlns:xlink="http://www.w3.org/1999/xlink" width="364" zoomAndPan="magnify" viewBox="0 0 273 54" height="72" preserveAspectRatio="xMidYMid meet" version="1.0"><defs><clipPath id="34d5ddd2e9"><path d="M 184 4 L 204.773438 4 L 204.773438 32 L 184 32 Z M 184 4 " clip-rule="nonzero"/></clipPath><clipPath id="bea398d99b"><path d="M 68.542969 3.402344 L 85 3.402344 L 85 32 L 68.542969 32 Z M 68.542969 3.402344 " clip-rule="nonzero"/></clipPath><clipPath id="fb7f3a3c30"><path d="M 76 39 L 85 39 L 85 49.796875 L 76 49.796875 Z M 76 39 " clip-rule="nonzero"/></clipPath><clipPath id="679a22923f"><path d="M 86 39 L 95 39 L 95 49.796875 L 86 49.796875 Z M 86 39 " clip-rule="nonzero"/></clipPath><clipPath id="4822ec5a67"><path d="M 93 39 L 100 39 L 100 49.796875 L 93 49.796875 Z M 93 39 " clip-rule="nonzero"/></clipPath><clipPath id="cd4c0d9e70"><path d="M 109 39 L 120 39 L 120 49.796875 L 109 49.796875 Z M 109 39 " clip-rule="nonzero"/></clipPath><clipPath id="dc53ce035f"><path d="M 146 36 L 154 36 L 154 49.796875 L 146 49.796875 Z M 146 36 " clip-rule="nonzero"/></clipPath><clipPath id="ef516d98ad"><path d="M 166 39 L 171 39 L 171 49.796875 L 166 49.796875 Z M 166 39 " clip-rule="nonzero"/></clipPath><clipPath id="25347faf31"><path d="M 171 39 L 177 39 L 177 49.796875 L 171 49.796875 Z M 171 39 " clip-rule="nonzero"/></clipPath></defs><path fill="#be1622" d="M 99.070312 28.902344 C 98.742188 29.152344 98.335938 29.453125 97.855469 29.800781 C 97.421875 30.121094 96.964844 30.398438 96.480469 30.632812 C 95.882812 30.902344 95.261719 31.105469 94.617188 31.234375 C 93.914062 31.371094 93.210938 31.433594 92.496094 31.429688 C 91.660156 31.453125 90.847656 31.320312 90.0625 31.03125 C 89.277344 30.742188 88.578125 30.3125 87.957031 29.75 C 87.351562 29.203125 86.890625 28.554688 86.570312 27.804688 C 86.25 27.054688 86.105469 26.273438 86.128906 25.457031 C 86.074219 24.222656 86.382812 23.085938 87.058594 22.046875 C 87.746094 21.105469 88.628906 20.40625 89.703125 19.960938 C 91.050781 19.394531 92.453125 19.03125 93.902344 18.875 C 95.574219 18.660156 97.308594 18.503906 99.105469 18.402344 L 99.105469 18.300781 C 99.140625 17.835938 99.042969 17.402344 98.804688 17.003906 C 98.570312 16.601562 98.238281 16.308594 97.816406 16.117188 C 96.59375 15.648438 95.328125 15.445312 94.023438 15.511719 C 92.921875 15.527344 91.851562 15.707031 90.804688 16.050781 C 89.664062 16.40625 88.84375 16.679688 88.347656 16.871094 L 87.796875 16.871094 L 87.796875 12.277344 C 88.441406 12.105469 89.484375 11.90625 90.9375 11.675781 C 92.378906 11.445312 93.832031 11.328125 95.292969 11.328125 C 98.757812 11.328125 101.261719 11.859375 102.804688 12.925781 C 103.597656 13.507812 104.203125 14.246094 104.613281 15.140625 C 105.027344 16.039062 105.191406 16.976562 105.117188 17.960938 L 105.117188 30.917969 L 99.070312 30.917969 Z M 99.070312 25.9375 L 99.070312 21.980469 C 98.25 22.050781 97.355469 22.144531 96.394531 22.261719 C 95.65625 22.335938 94.929688 22.472656 94.214844 22.675781 C 93.671875 22.824219 93.207031 23.105469 92.820312 23.515625 C 92.472656 23.933594 92.308594 24.414062 92.335938 24.957031 C 92.328125 25.285156 92.363281 25.605469 92.4375 25.925781 C 92.535156 26.214844 92.703125 26.449219 92.945312 26.632812 C 93.222656 26.867188 93.53125 27.03125 93.878906 27.132812 C 94.433594 27.257812 95 27.308594 95.570312 27.28125 C 96.210938 27.277344 96.832031 27.152344 97.425781 26.910156 C 98.027344 26.675781 98.578125 26.351562 99.070312 25.9375 Z M 99.070312 25.9375 " fill-opacity="1" fill-rule="nonzero"/><path fill="#be1622" d="M 126.707031 30.917969 L 120.59375 30.917969 L 120.59375 28.941406 C 119.695312 29.699219 118.714844 30.328125 117.652344 30.832031 C 116.640625 31.257812 115.585938 31.460938 114.488281 31.441406 C 113.402344 31.472656 112.367188 31.253906 111.390625 30.78125 C 110.410156 30.304688 109.59375 29.632812 108.941406 28.761719 C 108.199219 27.707031 107.648438 26.5625 107.292969 25.324219 C 106.933594 24.085938 106.792969 22.820312 106.859375 21.53125 C 106.835938 20.054688 107.070312 18.621094 107.566406 17.230469 C 108 16.039062 108.636719 14.96875 109.480469 14.019531 C 110.265625 13.15625 111.195312 12.496094 112.273438 12.042969 C 113.316406 11.582031 114.414062 11.347656 115.554688 11.339844 C 116.503906 11.3125 117.4375 11.433594 118.347656 11.703125 C 119.117188 11.960938 119.863281 12.269531 120.589844 12.628906 L 120.589844 4.523438 L 126.707031 4.523438 Z M 120.59375 25.675781 L 120.59375 16.3125 C 120.15625 16.128906 119.707031 16 119.242188 15.921875 C 118.808594 15.847656 118.375 15.804688 117.933594 15.804688 C 117.25 15.753906 116.589844 15.859375 115.953125 16.125 C 115.320312 16.390625 114.777344 16.785156 114.332031 17.308594 C 113.441406 18.554688 113.042969 19.945312 113.132812 21.480469 C 113.015625 22.941406 113.335938 24.296875 114.097656 25.550781 C 114.476562 26.003906 114.941406 26.339844 115.484375 26.5625 C 116.03125 26.785156 116.597656 26.871094 117.183594 26.816406 C 117.785156 26.808594 118.371094 26.707031 118.9375 26.503906 C 119.53125 26.3125 120.085938 26.035156 120.59375 25.675781 Z M 120.59375 25.675781 " fill-opacity="1" fill-rule="nonzero"/><path fill="#be1622" d="M 141.292969 28.902344 C 140.964844 29.152344 140.558594 29.453125 140.074219 29.800781 C 139.640625 30.121094 139.183594 30.398438 138.703125 30.632812 C 138.101562 30.902344 137.480469 31.105469 136.835938 31.234375 C 136.136719 31.371094 135.429688 31.433594 134.71875 31.429688 C 133.882812 31.453125 133.070312 31.320312 132.289062 31.03125 C 131.503906 30.738281 130.800781 30.3125 130.179688 29.75 C 129.578125 29.203125 129.117188 28.554688 128.796875 27.804688 C 128.476562 27.054688 128.328125 26.273438 128.351562 25.457031 C 128.300781 24.21875 128.613281 23.082031 129.289062 22.046875 C 129.976562 21.105469 130.855469 20.410156 131.933594 19.960938 C 133.28125 19.394531 134.679688 19.03125 136.132812 18.875 C 137.800781 18.660156 139.535156 18.503906 141.335938 18.402344 L 141.335938 18.300781 C 141.371094 17.835938 141.273438 17.402344 141.035156 17.003906 C 140.800781 16.605469 140.472656 16.308594 140.046875 16.117188 C 138.824219 15.648438 137.5625 15.445312 136.253906 15.511719 C 135.152344 15.527344 134.082031 15.707031 133.035156 16.054688 C 131.894531 16.410156 131.074219 16.683594 130.578125 16.875 L 130.019531 16.875 L 130.019531 12.277344 C 130.664062 12.105469 131.710938 11.90625 133.160156 11.675781 C 134.605469 11.445312 136.058594 11.328125 137.519531 11.328125 C 140.984375 11.328125 143.492188 11.859375 145.03125 12.925781 C 145.828125 13.507812 146.429688 14.246094 146.839844 15.140625 C 147.253906 16.039062 147.421875 16.976562 147.34375 17.960938 L 147.34375 30.917969 L 141.292969 30.917969 Z M 141.292969 25.9375 L 141.292969 21.980469 C 140.46875 22.050781 139.578125 22.144531 138.617188 22.261719 C 137.878906 22.335938 137.152344 22.472656 136.4375 22.675781 C 135.894531 22.824219 135.425781 23.101562 135.039062 23.515625 C 134.691406 23.933594 134.53125 24.414062 134.558594 24.957031 C 134.550781 25.285156 134.582031 25.605469 134.660156 25.925781 C 134.753906 26.214844 134.921875 26.449219 135.164062 26.632812 C 135.441406 26.867188 135.75 27.03125 136.097656 27.132812 C 136.65625 27.257812 137.21875 27.308594 137.792969 27.28125 C 138.433594 27.277344 139.050781 27.152344 139.644531 26.910156 C 140.25 26.675781 140.796875 26.351562 141.292969 25.9375 Z M 141.292969 25.9375 " fill-opacity="1" fill-rule="nonzero"/><path fill="#be1622" d="M 163.320312 17.691406 L 162.78125 17.691406 C 162.371094 17.570312 161.957031 17.503906 161.53125 17.488281 C 160.941406 17.4375 160.476562 17.417969 160.09375 17.417969 C 159.324219 17.410156 158.558594 17.46875 157.796875 17.59375 C 157.0625 17.730469 156.347656 17.925781 155.648438 18.183594 L 155.648438 30.941406 L 149.535156 30.941406 L 149.535156 11.871094 L 155.644531 11.871094 L 155.644531 14.667969 C 156.679688 13.707031 157.847656 12.941406 159.140625 12.371094 C 160.019531 12.011719 160.929688 11.824219 161.878906 11.800781 C 162.09375 11.800781 162.335938 11.800781 162.605469 11.820312 C 162.875 11.835938 163.113281 11.847656 163.3125 11.871094 Z M 163.320312 17.691406 " fill-opacity="1" fill-rule="nonzero"/><path fill="#be1622" d="M 176.5 28.902344 C 176.171875 29.152344 175.765625 29.453125 175.28125 29.800781 C 174.847656 30.121094 174.390625 30.398438 173.910156 30.632812 C 173.3125 30.902344 172.691406 31.105469 172.046875 31.234375 C 171.34375 31.371094 170.636719 31.433594 169.921875 31.429688 C 169.085938 31.453125 168.273438 31.320312 167.488281 31.03125 C 166.703125 30.738281 166.003906 30.3125 165.382812 29.75 C 164.777344 29.203125 164.316406 28.554688 163.996094 27.804688 C 163.679688 27.054688 163.53125 26.273438 163.554688 25.457031 C 163.5 24.21875 163.8125 23.082031 164.488281 22.046875 C 165.175781 21.105469 166.058594 20.410156 167.132812 19.960938 C 168.480469 19.394531 169.882812 19.03125 171.335938 18.875 C 173.007812 18.660156 174.738281 18.503906 176.53125 18.402344 L 176.53125 18.300781 C 176.570312 17.835938 176.472656 17.402344 176.234375 17.003906 C 176 16.601562 175.667969 16.308594 175.246094 16.117188 C 174.023438 15.648438 172.761719 15.445312 171.453125 15.511719 C 170.351562 15.527344 169.28125 15.707031 168.234375 16.050781 C 167.09375 16.40625 166.273438 16.679688 165.777344 16.871094 L 165.21875 16.871094 L 165.21875 12.277344 C 165.863281 12.105469 166.910156 11.90625 168.363281 11.675781 C 169.804688 11.445312 171.257812 11.328125 172.722656 11.328125 C 176.1875 11.328125 178.6875 11.859375 180.230469 12.925781 C 181.027344 13.507812 181.628906 14.246094 182.042969 15.140625 C 182.453125 16.039062 182.621094 16.976562 182.542969 17.960938 L 182.542969 30.917969 L 176.507812 30.917969 Z M 176.5 25.9375 L 176.5 21.980469 C 175.675781 22.050781 174.78125 22.144531 173.824219 22.261719 C 173.085938 22.335938 172.359375 22.472656 171.644531 22.675781 C 171.101562 22.824219 170.632812 23.101562 170.246094 23.515625 C 169.898438 23.933594 169.738281 24.414062 169.765625 24.957031 C 169.753906 25.285156 169.789062 25.605469 169.867188 25.925781 C 169.960938 26.214844 170.132812 26.449219 170.375 26.632812 C 170.648438 26.867188 170.957031 27.035156 171.304688 27.132812 C 171.863281 27.257812 172.429688 27.308594 173 27.28125 C 173.640625 27.277344 174.261719 27.152344 174.855469 26.910156 C 175.457031 26.675781 176.007812 26.351562 176.5 25.9375 Z M 176.5 25.9375 " fill-opacity="1" fill-rule="nonzero"/><g clip-path="url(#34d5ddd2e9)"><path fill="#be1622" d="M 204.773438 21.136719 C 204.828125 22.46875 204.644531 23.769531 204.21875 25.03125 C 203.789062 26.296875 203.148438 27.441406 202.292969 28.464844 C 201.53125 29.382812 200.609375 30.085938 199.527344 30.582031 C 198.445312 31.082031 197.308594 31.320312 196.121094 31.300781 C 195.171875 31.3125 194.242188 31.199219 193.324219 30.960938 C 192.515625 30.734375 191.753906 30.402344 191.03125 29.972656 L 190.777344 30.921875 L 184.917969 30.921875 L 184.917969 4.523438 L 191.03125 4.523438 L 191.03125 13.851562 C 191.917969 13.136719 192.875 12.53125 193.902344 12.039062 C 194.976562 11.550781 196.101562 11.320312 197.28125 11.34375 C 198.367188 11.289062 199.398438 11.488281 200.378906 11.953125 C 201.363281 12.414062 202.179688 13.078125 202.828125 13.949219 C 203.53125 15.007812 204.050781 16.152344 204.382812 17.382812 C 204.714844 18.613281 204.847656 19.863281 204.773438 21.136719 Z M 198.488281 21.265625 C 198.570312 19.878906 198.285156 18.574219 197.628906 17.351562 C 197.277344 16.859375 196.824219 16.492188 196.273438 16.25 C 195.722656 16.003906 195.148438 15.914062 194.550781 15.980469 C 193.949219 15.984375 193.355469 16.070312 192.777344 16.242188 C 192.164062 16.417969 191.585938 16.667969 191.035156 16.996094 L 191.035156 26.546875 C 191.441406 26.699219 191.859375 26.804688 192.289062 26.871094 C 192.757812 26.929688 193.230469 26.957031 193.707031 26.953125 C 194.382812 27.007812 195.039062 26.910156 195.671875 26.660156 C 196.300781 26.410156 196.847656 26.035156 197.304688 25.53125 C 198.210938 24.25 198.605469 22.824219 198.488281 21.257812 Z M 198.488281 21.265625 " fill-opacity="1" fill-rule="nonzero"/></g><g clip-path="url(#bea398d99b)"><path fill="#be1622" d="M 84.636719 30.832031 C 83.863281 31.027344 83.082031 31.171875 82.292969 31.273438 C 81.285156 31.390625 80.277344 31.445312 79.261719 31.4375 C 78.207031 31.519531 77.167969 31.417969 76.144531 31.140625 C 75.125 30.863281 74.175781 30.421875 73.308594 29.816406 C 72.582031 29.085938 72.046875 28.238281 71.707031 27.265625 C 71.363281 26.292969 71.25 25.292969 71.359375 24.269531 L 71.359375 14.257812 L 68.542969 14.257812 L 68.542969 9.597656 L 71.359375 9.597656 L 71.359375 3.480469 L 78.238281 3.480469 L 78.238281 9.605469 L 84.636719 9.605469 L 84.636719 14.261719 L 78.238281 14.261719 L 78.238281 21.863281 C 78.238281 22.617188 78.242188 23.273438 78.257812 23.832031 C 78.257812 24.355469 78.355469 24.855469 78.550781 25.339844 C 78.738281 25.804688 79.050781 26.15625 79.488281 26.398438 C 80.109375 26.699219 80.765625 26.832031 81.457031 26.792969 C 81.929688 26.773438 82.394531 26.695312 82.851562 26.5625 C 83.269531 26.464844 83.671875 26.324219 84.054688 26.140625 L 84.625 26.140625 Z M 84.636719 30.832031 " fill-opacity="1" fill-rule="nonzero"/></g><path fill="#6d6e71" d="M 73.222656 40.25 C 73.222656 39.285156 72.984375 38.90625 72.347656 38.90625 C 72.242188 38.90625 72.140625 38.925781 72.046875 38.96875 C 71.949219 39.011719 71.863281 39.070312 71.792969 39.148438 C 71.722656 39.226562 71.667969 39.316406 71.636719 39.414062 C 71.601562 39.515625 71.589844 39.617188 71.597656 39.722656 C 71.609375 40.132812 71.773438 40.46875 72.085938 40.730469 L 72.394531 41.007812 C 72.757812 41.253906 73.039062 41.578125 73.230469 41.976562 C 73.421875 42.375 73.5 42.792969 73.464844 43.234375 L 73.464844 44.265625 L 71.632812 44.265625 L 71.632812 43.464844 C 71.660156 43.027344 71.488281 42.691406 71.117188 42.460938 C 70.785156 42.210938 70.476562 41.941406 70.183594 41.648438 C 69.746094 41.125 69.53125 40.523438 69.542969 39.839844 C 69.535156 39.472656 69.605469 39.113281 69.742188 38.773438 C 69.882812 38.429688 70.085938 38.128906 70.351562 37.871094 C 70.613281 37.613281 70.917969 37.414062 71.265625 37.28125 C 71.609375 37.148438 71.964844 37.089844 72.335938 37.101562 C 73.105469 37.085938 73.785156 37.324219 74.375 37.816406 C 75.039062 38.492188 75.332031 39.304688 75.257812 40.25 Z M 71.632812 46.777344 L 71.632812 44.839844 L 73.472656 44.839844 L 73.472656 46.777344 Z M 71.632812 46.777344 " fill-opacity="1" fill-rule="nonzero"/><g clip-path="url(#fb7f3a3c30)"><path fill="#6d6e71" d="M 81.828125 46.777344 L 79.886719 46.777344 C 78.917969 46.777344 78.535156 47.21875 78.535156 48.101562 L 78.535156 49.355469 L 76.695312 49.355469 L 76.695312 48.046875 C 76.65625 47.691406 76.6875 47.339844 76.789062 46.996094 C 76.894531 46.652344 77.058594 46.34375 77.289062 46.066406 C 77.515625 45.792969 77.789062 45.570312 78.109375 45.40625 C 78.425781 45.242188 78.765625 45.144531 79.121094 45.117188 C 78.84375 44.472656 78.714844 43.796875 78.738281 43.09375 C 78.738281 40.910156 79.871094 39.410156 81.824219 39.410156 C 83.8125 39.410156 84.945312 40.898438 84.945312 43.113281 C 84.945312 45.324219 83.859375 46.777344 81.828125 46.777344 Z M 81.828125 40.992188 C 81.101562 40.992188 80.621094 41.5 80.621094 43.074219 C 80.621094 44.578125 81.105469 45.101562 81.828125 45.101562 C 82.578125 45.101562 83.078125 44.546875 83.078125 43.089844 C 83.078125 41.5 82.578125 40.992188 81.828125 40.992188 Z M 81.828125 40.992188 " fill-opacity="1" fill-rule="nonzero"/></g><g clip-path="url(#679a22923f)"><path fill="#6d6e71" d="M 92.347656 46.777344 C 92.300781 47.144531 92.191406 47.496094 92.019531 47.828125 C 91.847656 48.15625 91.625 48.449219 91.347656 48.699219 C 91.074219 48.949219 90.765625 49.144531 90.421875 49.285156 C 90.074219 49.425781 89.71875 49.503906 89.347656 49.515625 L 89.023438 49.542969 L 89.023438 47.855469 C 89.359375 47.878906 89.660156 47.785156 89.929688 47.582031 C 90.195312 47.375 90.359375 47.105469 90.425781 46.777344 L 89.320312 46.777344 C 89.113281 46.785156 88.910156 46.769531 88.707031 46.734375 C 88.5 46.695312 88.304688 46.640625 88.113281 46.558594 C 87.921875 46.480469 87.742188 46.382812 87.570312 46.261719 C 87.402344 46.144531 87.246094 46.011719 87.105469 45.859375 C 86.964844 45.707031 86.84375 45.539062 86.738281 45.363281 C 86.632812 45.183594 86.550781 44.996094 86.484375 44.796875 C 86.421875 44.601562 86.378906 44.398438 86.359375 44.191406 C 86.335938 43.988281 86.339844 43.78125 86.363281 43.574219 C 86.363281 41.257812 87.4375 39.976562 89.320312 39.976562 L 92.367188 39.976562 L 92.367188 45.105469 L 94.109375 45.105469 L 94.109375 46.78125 Z M 90.523438 41.597656 L 89.347656 41.597656 C 88.347656 41.597656 88.199219 42.824219 88.199219 43.566406 C 88.199219 44.378906 88.582031 45.09375 89.347656 45.09375 L 90.523438 45.09375 Z M 90.523438 41.597656 " fill-opacity="1" fill-rule="nonzero"/></g><g clip-path="url(#4822ec5a67)"><path fill="#6d6e71" d="M 93.125 49.71875 L 93.125 47.898438 L 94.757812 47.898438 L 94.757812 49.71875 Z M 98.582031 46.773438 C 97.757812 46.800781 97.015625 46.5625 96.359375 46.058594 C 95.726562 46.578125 95 46.816406 94.183594 46.773438 L 93.660156 46.773438 L 93.660156 45.101562 L 94.1875 45.101562 C 94.957031 45.101562 95.382812 44.691406 95.382812 44.050781 L 95.382812 39.988281 L 97.234375 39.988281 L 97.234375 44.097656 C 97.234375 44.707031 97.675781 45.101562 98.589844 45.101562 L 99.117188 45.101562 L 99.117188 46.777344 Z M 95.496094 49.71875 L 95.496094 47.898438 L 97.128906 47.898438 L 97.128906 49.71875 Z M 95.496094 49.71875 " fill-opacity="1" fill-rule="nonzero"/></g><path fill="#6d6e71" d="M 98.671875 46.777344 L 98.671875 45.101562 C 99.9375 45.101562 100.527344 44.636719 100.527344 43.773438 L 100.527344 37.363281 L 102.367188 37.363281 L 102.367188 43.875 C 102.363281 45.671875 100.953125 46.777344 98.671875 46.777344 Z M 98.671875 46.777344 " fill-opacity="1" fill-rule="nonzero"/><path fill="#6d6e71" d="M 103.792969 46.777344 L 103.792969 37.332031 L 105.632812 37.332031 L 105.632812 46.777344 Z M 103.792969 46.777344 " fill-opacity="1" fill-rule="nonzero"/><g clip-path="url(#cd4c0d9e70)"><path fill="#6d6e71" d="M 119.488281 46.777344 C 119.027344 46.808594 118.582031 46.734375 118.15625 46.554688 C 117.730469 46.375 117.363281 46.109375 117.0625 45.757812 C 116.773438 46.101562 116.417969 46.363281 116.003906 46.542969 C 115.59375 46.722656 115.160156 46.800781 114.710938 46.777344 L 112.765625 46.777344 C 111.796875 46.777344 111.414062 47.21875 111.414062 48.101562 L 111.414062 49.355469 L 109.574219 49.355469 L 109.574219 48.046875 C 109.535156 47.691406 109.566406 47.339844 109.671875 46.996094 C 109.773438 46.652344 109.941406 46.34375 110.167969 46.066406 C 110.398438 45.792969 110.671875 45.570312 110.988281 45.40625 C 111.308594 45.242188 111.644531 45.144531 112.003906 45.117188 C 111.722656 44.472656 111.597656 43.796875 111.617188 43.09375 C 111.617188 40.910156 112.753906 39.410156 114.707031 39.410156 C 116.695312 39.410156 117.824219 40.898438 117.824219 43.113281 C 117.824219 43.335938 117.808594 43.558594 117.78125 43.78125 C 117.882812 44.65625 118.472656 45.109375 119.515625 45.109375 L 119.824219 45.109375 L 119.824219 46.777344 Z M 114.710938 40.992188 C 113.984375 40.992188 113.503906 41.5 113.503906 43.074219 C 113.503906 44.578125 113.988281 45.101562 114.710938 45.101562 C 115.460938 45.101562 115.960938 44.574219 115.960938 43.089844 C 115.960938 41.5 115.464844 40.992188 114.710938 40.992188 Z M 114.710938 40.992188 " fill-opacity="1" fill-rule="nonzero"/></g><path fill="#6d6e71" d="M 124.3125 46.777344 C 123.488281 46.800781 122.746094 46.5625 122.089844 46.0625 C 121.457031 46.582031 120.730469 46.820312 119.910156 46.777344 L 119.386719 46.777344 L 119.386719 45.097656 L 119.917969 45.097656 C 120.683594 45.097656 121.109375 44.691406 121.109375 44.050781 L 121.109375 37.359375 L 122.960938 37.359375 L 122.960938 44.089844 C 122.960938 44.703125 123.402344 45.09375 124.316406 45.09375 L 124.847656 45.09375 L 124.847656 46.769531 Z M 124.3125 46.777344 " fill-opacity="1" fill-rule="nonzero"/><path fill="#6d6e71" d="M 130.957031 46.773438 C 130.46875 46.777344 129.996094 46.710938 129.527344 46.570312 C 129.058594 46.710938 128.578125 46.777344 128.089844 46.773438 L 124.414062 46.773438 L 124.414062 45.097656 L 127.339844 45.097656 L 125.484375 43.5 C 125.53125 42.992188 125.667969 42.515625 125.894531 42.0625 C 126.121094 41.609375 126.421875 41.210938 126.792969 40.871094 C 127.167969 40.527344 127.589844 40.265625 128.0625 40.085938 C 128.535156 39.902344 129.023438 39.808594 129.527344 39.808594 C 130.035156 39.808594 130.523438 39.902344 130.996094 40.085938 C 131.464844 40.265625 131.890625 40.527344 132.261719 40.871094 C 132.636719 41.210938 132.9375 41.609375 133.164062 42.0625 C 133.386719 42.515625 133.523438 42.992188 133.570312 43.5 L 131.703125 45.097656 L 134.640625 45.097656 L 134.640625 46.773438 Z M 129.546875 41.367188 C 129.296875 41.34375 129.054688 41.363281 128.8125 41.433594 C 128.570312 41.5 128.351562 41.613281 128.15625 41.769531 C 127.960938 41.921875 127.796875 42.109375 127.675781 42.328125 C 127.550781 42.542969 127.472656 42.777344 127.4375 43.027344 C 127.96875 43.503906 129.054688 44.453125 129.527344 44.832031 L 131.601562 43.027344 C 131.566406 42.78125 131.488281 42.554688 131.367188 42.339844 C 131.246094 42.125 131.089844 41.941406 130.898438 41.789062 C 130.707031 41.636719 130.492188 41.523438 130.257812 41.449219 C 130.023438 41.375 129.785156 41.351562 129.539062 41.367188 Z M 129.546875 41.367188 " fill-opacity="1" fill-rule="nonzero"/><path fill="#6d6e71" d="M 134.042969 38.703125 L 134.042969 36.882812 L 135.546875 36.882812 L 135.546875 38.703125 Z M 139.117188 46.777344 C 138.292969 46.800781 137.554688 46.5625 136.898438 46.0625 C 136.261719 46.582031 135.535156 46.820312 134.71875 46.777344 L 134.1875 46.777344 L 134.1875 45.105469 L 134.71875 45.105469 C 135.484375 45.105469 135.910156 44.699219 135.910156 44.058594 L 135.910156 39.976562 L 137.761719 39.976562 L 137.761719 44.101562 C 137.761719 44.714844 138.203125 45.105469 139.117188 45.105469 L 139.648438 45.105469 L 139.648438 46.78125 Z M 136.25 38.703125 L 136.25 36.882812 L 137.746094 36.882812 L 137.746094 38.703125 Z M 136.25 38.703125 " fill-opacity="1" fill-rule="nonzero"/><path fill="#6d6e71" d="M 139.203125 46.777344 L 139.203125 45.105469 C 140.46875 45.105469 141.058594 44.65625 141.058594 43.796875 L 141.058594 39.972656 L 142.90625 39.972656 L 142.90625 43.875 C 142.902344 45.671875 141.484375 46.777344 139.203125 46.777344 Z M 139.320312 38.703125 L 139.320312 36.882812 L 140.792969 36.882812 L 140.792969 38.703125 Z M 141.527344 38.703125 L 141.527344 36.882812 L 142.996094 36.882812 L 142.996094 38.703125 Z M 141.527344 38.703125 " fill-opacity="1" fill-rule="nonzero"/><g clip-path="url(#dc53ce035f)"><path fill="#6d6e71" d="M 150.207031 49.382812 C 150.074219 49.390625 149.941406 49.390625 149.808594 49.382812 C 149.410156 49.394531 149.027344 49.324219 148.65625 49.175781 C 148.289062 49.027344 147.964844 48.808594 147.683594 48.523438 C 147.402344 48.242188 147.191406 47.914062 147.046875 47.539062 C 146.902344 47.167969 146.835938 46.78125 146.851562 46.382812 L 146.851562 39.972656 L 148.691406 39.972656 L 148.691406 46.339844 C 148.664062 46.523438 148.679688 46.707031 148.738281 46.882812 C 148.796875 47.058594 148.890625 47.214844 149.023438 47.347656 C 149.15625 47.480469 149.308594 47.574219 149.488281 47.632812 C 149.664062 47.691406 149.847656 47.707031 150.03125 47.679688 C 150.957031 47.679688 151.324219 47.210938 151.324219 46.339844 L 151.324219 39.972656 L 153.179688 39.972656 L 153.179688 46.398438 C 153.191406 46.796875 153.128906 47.183594 152.980469 47.554688 C 152.835938 47.925781 152.621094 48.253906 152.339844 48.539062 C 152.058594 48.820312 151.734375 49.035156 151.363281 49.183594 C 150.992188 49.332031 150.609375 49.398438 150.207031 49.382812 Z M 149.0625 38.703125 L 149.0625 36.882812 L 150.914062 36.882812 L 150.914062 38.703125 Z M 149.0625 38.703125 " fill-opacity="1" fill-rule="nonzero"/></g><path fill="#6d6e71" d="M 153.511719 36.53125 L 153.511719 35.820312 L 154.15625 35.820312 L 154.15625 35.671875 C 154.140625 35.5 154.15625 35.332031 154.210938 35.167969 C 154.261719 35.003906 154.347656 34.859375 154.460938 34.730469 C 154.578125 34.601562 154.714844 34.503906 154.871094 34.433594 C 155.027344 34.363281 155.195312 34.332031 155.367188 34.332031 C 155.613281 34.3125 155.84375 34.371094 156.054688 34.503906 C 156.261719 34.640625 156.410156 34.824219 156.496094 35.058594 C 156.378906 35.074219 155.71875 35.191406 155.71875 35.191406 C 155.683594 35.136719 155.636719 35.09375 155.578125 35.0625 C 155.519531 35.03125 155.460938 35.015625 155.394531 35.015625 C 154.964844 35.015625 154.964844 35.457031 154.964844 35.65625 L 154.964844 35.816406 L 156.660156 35.816406 L 156.660156 36.53125 Z M 154.601562 46.777344 L 154.601562 37.332031 L 156.453125 37.332031 L 156.453125 46.777344 Z M 154.601562 46.777344 " fill-opacity="1" fill-rule="nonzero"/><path fill="#6d6e71" d="M 160.386719 46.777344 L 160.386719 45.101562 L 163.507812 45.101562 L 163.507812 43.132812 C 163.507812 41.824219 163.183594 41.488281 162.285156 41.488281 L 162.609375 39.867188 C 164.496094 39.867188 165.316406 40.769531 165.316406 42.53125 L 165.316406 45.097656 L 167.203125 45.097656 L 167.203125 46.773438 Z M 160.386719 46.777344 " fill-opacity="1" fill-rule="nonzero"/><g clip-path="url(#ef516d98ad)"><path fill="#6d6e71" d="M 166.125 49.71875 L 166.125 47.898438 L 167.773438 47.898438 L 167.773438 49.71875 Z M 166.980469 46.773438 L 166.835938 46.773438 L 166.835938 45.097656 L 166.980469 45.097656 C 168.214844 45.070312 168.613281 44.632812 168.613281 43.789062 L 168.613281 39.972656 L 170.457031 39.972656 L 170.457031 43.875 C 170.457031 45.652344 169.230469 46.761719 166.980469 46.773438 Z M 168.496094 49.71875 L 168.496094 47.898438 L 170.128906 47.898438 L 170.128906 49.71875 Z M 168.496094 49.71875 " fill-opacity="1" fill-rule="nonzero"/></g><g clip-path="url(#25347faf31)"><path fill="#6d6e71" d="M 175.996094 46.773438 C 175.398438 46.785156 174.839844 46.636719 174.320312 46.332031 C 174.332031 46.542969 174.316406 46.753906 174.277344 46.960938 C 174.242188 47.171875 174.183594 47.371094 174.105469 47.570312 C 174.023438 47.765625 173.921875 47.949219 173.804688 48.125 C 173.683594 48.296875 173.546875 48.457031 173.390625 48.601562 C 173.238281 48.746094 173.070312 48.871094 172.886719 48.980469 C 172.707031 49.089844 172.515625 49.175781 172.316406 49.242188 C 172.113281 49.308594 171.910156 49.355469 171.699219 49.378906 C 171.488281 49.402344 171.28125 49.402344 171.070312 49.378906 L 171.070312 47.75 C 172.570312 47.75 172.511719 46.542969 172.511719 45.550781 L 172.511719 39.96875 L 174.320312 39.96875 C 174.320312 39.96875 174.320312 42.460938 174.351562 43.789062 C 174.351562 44.707031 175.015625 45.097656 175.996094 45.097656 L 176.234375 45.097656 L 176.234375 46.773438 Z M 175.996094 46.773438 " fill-opacity="1" fill-rule="nonzero"/></g><path fill="#6d6e71" d="M 175.777344 46.777344 L 175.777344 45.105469 C 177.042969 45.105469 177.632812 44.65625 177.632812 43.796875 L 177.632812 39.972656 L 179.46875 39.972656 L 179.46875 43.875 C 179.46875 45.671875 178.0625 46.777344 175.777344 46.777344 Z M 175.894531 38.703125 L 175.894531 36.882812 L 177.363281 36.882812 L 177.363281 38.703125 Z M 178.101562 38.703125 L 178.101562 36.882812 L 179.570312 36.882812 L 179.570312 38.703125 Z M 178.101562 38.703125 " fill-opacity="1" fill-rule="nonzero"/><path fill="#6d6e71" d="M 183.429688 46.777344 L 183.429688 37.332031 L 185.269531 37.332031 L 185.269531 46.777344 Z M 183.429688 46.777344 " fill-opacity="1" fill-rule="nonzero"/><path fill="#6d6e71" d="M 186.679688 46.777344 L 186.679688 45.105469 L 189.800781 45.105469 L 189.800781 43.132812 C 189.800781 41.824219 189.476562 41.488281 188.578125 41.488281 L 188.902344 39.867188 C 190.792969 39.867188 191.609375 40.769531 191.609375 42.53125 L 191.609375 46.773438 Z M 188.886719 38.703125 L 188.886719 36.882812 L 190.726562 36.882812 L 190.726562 38.703125 Z M 188.886719 38.703125 " fill-opacity="1" fill-rule="nonzero"/><path fill="#6d6e71" d="M 193.035156 43.789062 L 193.035156 37.332031 L 194.875 37.332031 L 194.875 43.75 C 194.875 44.632812 195.285156 45.105469 196.550781 45.105469 L 196.550781 46.78125 C 194.242188 46.777344 193.035156 45.640625 193.035156 43.789062 Z M 193.035156 43.789062 " fill-opacity="1" fill-rule="nonzero"/><path fill="#6d6e71" d="M 200.65625 46.777344 C 200.21875 46.808594 199.804688 46.730469 199.414062 46.535156 C 199.019531 46.34375 198.703125 46.0625 198.460938 45.699219 C 198.179688 46.097656 197.8125 46.394531 197.363281 46.589844 C 196.914062 46.785156 196.449219 46.84375 195.964844 46.777344 L 195.964844 45.101562 C 197.523438 45.101562 197.476562 43.660156 197.523438 42.695312 C 197.503906 42.273438 197.574219 41.863281 197.726562 41.46875 C 197.875 41.070312 198.101562 40.722656 198.398438 40.417969 C 198.695312 40.117188 199.039062 39.886719 199.433594 39.726562 C 199.824219 39.566406 200.234375 39.492188 200.65625 39.503906 C 202.65625 39.503906 203.789062 40.960938 203.789062 43.140625 C 203.789062 45.324219 202.671875 46.777344 200.65625 46.777344 Z M 200.65625 41.050781 C 199.917969 41.050781 199.417969 41.574219 199.417969 43.175781 C 199.417969 44.707031 199.90625 45.238281 200.65625 45.238281 C 201.40625 45.238281 201.90625 44.699219 201.90625 43.199219 C 201.902344 41.574219 201.40625 41.050781 200.65625 41.050781 Z M 200.65625 41.050781 " fill-opacity="1" fill-rule="nonzero"/></svg>