<svg xmlns="http://www.w3.org/2000/svg" xmlns:xlink="http://www.w3.org/1999/xlink" width="364" zoomAndPan="magnify" viewBox="0 0 273 54" height="72" preserveAspectRatio="xMidYMid meet" version="1.0"><defs><clipPath id="cbc18aade3"><path d="M 56.566406 11 L 84 11 L 84 42 L 56.566406 42 Z M 56.566406 11 " clip-rule="nonzero"/></clipPath><clipPath id="dcbf539d74"><path d="M 85 10.667969 L 115 10.667969 L 115 42 L 85 42 Z M 85 10.667969 " clip-rule="nonzero"/></clipPath><clipPath id="5ad2ee9428"><path d="M 118 10.667969 L 149 10.667969 L 149 42 L 118 42 Z M 118 10.667969 " clip-rule="nonzero"/></clipPath></defs><path fill="#00cdca" d="M 206.707031 33.496094 C 208.273438 33.023438 209.601562 32.242188 210.777344 31.144531 C 211.875 30.046875 212.8125 28.792969 213.4375 27.378906 C 214.0625 25.96875 214.378906 24.402344 214.378906 22.832031 C 214.378906 21.1875 214.0625 19.699219 213.4375 18.285156 C 212.8125 16.875 211.953125 15.621094 210.777344 14.523438 C 208.585938 12.484375 205.613281 11.464844 201.855469 11.464844 L 186.984375 11.464844 L 186.984375 41.648438 L 194.808594 41.648438 L 194.808594 34.199219 L 197.707031 34.199219 L 206.003906 41.648438 L 214.925781 41.648438 Z M 205.378906 25.890625 C 204.59375 26.675781 203.261719 27.144531 201.460938 27.144531 L 194.886719 27.144531 L 194.886719 18.363281 L 201.460938 18.363281 C 203.261719 18.363281 204.59375 18.757812 205.378906 19.621094 C 206.160156 20.480469 206.550781 21.5 206.550781 22.753906 C 206.550781 24.007812 206.160156 25.027344 205.378906 25.890625 Z M 205.378906 25.890625 " fill-opacity="1" fill-rule="nonzero"/><g clip-path="url(#cbc18aade3)"><path fill="#282828" d="M 67.464844 34.671875 L 82.023438 16.328125 L 82.023438 11.386719 L 57.839844 11.386719 L 57.839844 18.207031 L 70.988281 18.207031 L 56.585938 36.472656 L 56.585938 41.414062 L 83.277344 41.414062 L 83.277344 34.59375 L 67.464844 34.59375 Z M 67.464844 34.671875 " fill-opacity="1" fill-rule="nonzero"/></g><g clip-path="url(#dcbf539d74)"><path fill="#282828" d="M 114.585938 26.125 C 114.585938 23.382812 113.957031 20.796875 112.785156 18.445312 C 111.609375 16.089844 109.886719 14.210938 107.695312 12.800781 C 105.503906 11.386719 103.078125 10.683594 100.339844 10.683594 C 98.148438 10.683594 96.113281 11.074219 94.3125 11.9375 C 92.433594 12.800781 90.945312 13.898438 89.695312 15.386719 C 88.441406 16.796875 87.503906 18.523438 86.800781 20.402344 C 86.09375 22.285156 85.78125 24.324219 85.78125 26.363281 C 85.78125 30.988281 87.269531 34.75 90.242188 37.648438 C 92.121094 39.53125 94.390625 40.785156 96.894531 41.414062 C 98.304688 41.804688 99.871094 41.960938 101.511719 41.960938 C 103 41.960938 104.488281 41.804688 105.898438 41.414062 C 106.757812 41.179688 107.539062 40.941406 108.324219 40.550781 C 110.515625 39.609375 112.316406 38.277344 113.800781 36.550781 L 109.261719 32.003906 C 108.402344 32.945312 107.304688 33.730469 105.976562 34.4375 C 104.644531 35.140625 103.234375 35.457031 101.671875 35.457031 C 99.558594 35.457031 97.679688 34.828125 96.191406 33.496094 C 94.625 32.164062 93.765625 30.4375 93.609375 28.320312 L 114.429688 28.320312 C 114.507812 27.773438 114.585938 26.988281 114.585938 26.125 Z M 93.921875 22.519531 C 94.078125 21.109375 94.78125 19.855469 96.035156 18.835938 C 97.285156 17.816406 98.695312 17.269531 100.339844 17.269531 C 101.90625 17.269531 103.3125 17.816406 104.410156 18.835938 C 105.503906 19.933594 106.132812 21.109375 106.289062 22.519531 Z M 93.921875 22.519531 " fill-opacity="1" fill-rule="nonzero"/></g><g clip-path="url(#5ad2ee9428)"><path fill="#282828" d="M 147.691406 19.933594 C 147.144531 18.285156 146.363281 16.796875 145.34375 15.621094 C 144.09375 14.132812 142.527344 12.957031 140.726562 12.09375 C 138.925781 11.230469 136.96875 10.839844 134.933594 10.839844 C 131.804688 10.839844 128.984375 11.859375 126.480469 13.898438 L 126.480469 11.464844 L 118.734375 11.464844 L 118.734375 41.570312 L 126.792969 41.570312 L 126.792969 21.972656 C 127.5 21.03125 128.515625 20.167969 129.769531 19.382812 C 131.097656 18.601562 132.507812 18.207031 134.074219 18.207031 C 135.953125 18.207031 137.4375 18.757812 138.613281 19.855469 C 139.789062 21.03125 140.414062 22.910156 140.414062 25.5 L 140.414062 41.414062 L 148.476562 41.414062 L 148.476562 26.125 C 148.398438 23.617188 148.164062 21.578125 147.691406 19.933594 Z M 147.691406 19.933594 " fill-opacity="1" fill-rule="nonzero"/></g><path fill="#00cdca" d="M 173.519531 11.386719 L 173.519531 22.363281 L 162.40625 22.363281 L 162.40625 11.386719 L 154.03125 11.386719 L 154.03125 41.492188 L 162.40625 41.492188 L 162.40625 30.046875 L 173.519531 30.046875 L 173.519531 41.492188 L 181.894531 41.492188 L 181.894531 11.386719 Z M 173.519531 11.386719 " fill-opacity="1" fill-rule="nonzero"/></svg>